<svg viewBox="0 0 500 500" fill="none" xmlns="http://www.w3.org/2000/svg">
  <!-- Left J-loop (oval loop) with calligraphic thickness -->
  <path
    d="M 220 150 C 130 170 95 270 115 370 C 130 450 170 475 210 450 C 255 420 275 320 265 240 C 260 180 245 150 220 150 Z 
       M 210 175 C 230 175 240 230 240 290 C 240 350 220 425 200 425 C 180 425 150 380 143 315 C 136 250 160 175 210 175 Z"
    fill="#09090b"
    fill-rule="evenodd"
  />

  <!-- Main stem with top-left hook -->
  <path
    d="M 110 160 C 135 150 175 125 200 80 C 210 65 218 67 218 80 C 218 135 245 270 240 365 C 238 380 232 385 225 385 C 218 385 220 370 222 350 C 228 270 205 135 205 95 C 175 135 140 145 110 145 C 108 145 108 160 110 160 Z"
    fill="#09090b"
  />

  <!-- R-Bow (upper right loop) -->
  <path
    d="M 206 138 C 255 108 328 118 328 190 C 328 245 278 263 240 263 C 235 263 235 255 240 255 C 270 255 310 238 310 190 C 310 145 255 128 210 148 L 206 138 Z"
    fill="#09090b"
  />

  <!-- R-Leg (diagonal right sweep + bird cradle) -->
  <path
    d="M 240 260 C 265 260 290 310 312 360 C 320 375 330 375 340 350 C 355 315 370 290 376 295 C 382 300 370 315 355 345 C 345 365 332 385 320 385 C 300 385 280 320 255 272 C 250 265 242 260 240 260 Z"
    fill="#09090b"
  />

  <!-- Middle crossbar (forming the 'A' with the loop and leg) -->
  <path
    d="M 233 323 C 250 321 270 318 285 316 C 288 316 288 320 285 320 C 270 322 250 325 233 327 C 230 327 230 323 233 323 Z"
    fill="#09090b"
  />

  <!-- Bird silhouette sitting on the leg tip -->
  <path
    d="M 376 295 C 371 292 367 282 369 270 C 371 259 382 255 390 262 C 394 266 408 282 422 290 C 408 290 395 286 385 292 C 382 294 378 295 376 295 Z"
    fill="#09090b"
  />
  <!-- Eye of the bird -->
  <circle cx="377" cy="268" r="1.5" fill="#FFFFFF" />
  
  <!-- Subtle Wing definition -->
  <path
    d="M 383 273 C 391 276 399 283 402 288 C 396 287 390 281 383 273 Z"
    fill="#FFFFFF"
    opacity="0.7"
  />
</svg>
