<svg viewBox="0 0 500 500" fill="none" xmlns="http://www.w3.org/2000/svg">
  <g stroke="#09090b" stroke-width="18" stroke-linecap="round" stroke-linejoin="round" fill="none">
    <!-- Left J-loop -->
    <path d="M 215 140 C 130 160 110 260 125 360 C 138 435 180 445 205 425 C 240 395 250 300 245 240 C 242 190 230 140 215 140 Z" />

    <!-- Main stem with top hook -->
    <path d="M 120 150 C 145 140 180 115 205 75 C 208 70 208 70 210 90 C 215 140 230 260 225 370" />

    <!-- R-Bow -->
    <path d="M 210 145 C 260 120 315 130 315 190 C 315 245 265 255 220 255" />

    <!-- R-Leg (bird perch) -->
    <path d="M 223 255 C 255 255 285 315 315 365 C 322 375 330 375 342 355 C 352 335 362 315 368 318" />

    <!-- Crossbar (A) -->
    <path d="M 224 315 H 285" stroke-width="14" />

    <!-- Stylized geometric bird (simplified shapes) -->
    <path
      d="M 368 318 C 365 310 360 295 365 285 C 370 275 385 272 392 280 C 396 285 410 300 422 308 C 405 308 390 302 380 308 Z"
      fill="#09090b"
      stroke="none"
    />
  </g>
</svg>
